<svg width="26" height="27" viewBox="0 0 26 27" fill="none" xmlns="http://www.w3.org/2000/svg">
<path d="M24.9993 19.3512V23.0411C25.0049 24.4516 23.763 25.6295 22.3686 25.501C10.3334 25.5106 1 15.8902 1.00942 3.68144C0.883833 2.26495 2.03144 1.00144 3.41082 1.00012H7.03101C7.61665 0.994244 8.1844 1.20562 8.62844 1.59485C9.89087 2.70144 10.7029 6.45739 10.3904 7.95051C10.1465 9.11624 8.99589 9.9318 8.21361 10.7291C9.93146 13.8084 12.4329 16.358 15.454 18.1089C16.2363 17.3116 17.0364 16.1388 18.1802 15.8902C19.6473 15.5713 23.3487 16.4017 24.4279 17.7C24.8106 18.1603 25.0139 18.748 24.9993 19.3512Z" stroke="white" stroke-width="2" stroke-linecap="round" stroke-linejoin="round"/>
</svg>
