<svg width="39" height="32" viewBox="0 0 39 32" fill="none" xmlns="http://www.w3.org/2000/svg">
<rect width="39" height="32" rx="10" fill="#F7D1C7"/>
<path d="M12 10.8667C12 10.388 12.3918 10 12.875 10H25.125C25.6082 10 26 10.388 26 10.8667V18.6667C26 19.1453 25.6082 19.5333 25.125 19.5333H12.875C12.3918 19.5333 12 19.1453 12 18.6667V10.8667Z" fill="#FFFEFC"/>
<path d="M19 19.5333V23M19 23H22.5M19 23H15.5M12.875 19.5333H25.125C25.6082 19.5333 26 19.1453 26 18.6667V10.8667C26 10.388 25.6082 10 25.125 10H12.875C12.3918 10 12 10.388 12 10.8667V18.6667C12 19.1453 12.3918 19.5333 12.875 19.5333Z" stroke="white" stroke-width="2" stroke-linecap="round" stroke-linejoin="round"/>
</svg>
