<svg width="39" height="32" viewBox="0 0 39 32" fill="none" xmlns="http://www.w3.org/2000/svg">
<rect width="39" height="32" rx="10" fill="#EDC218"/>
<path d="M25.9996 18.1756V20.0206C26.0024 20.7258 25.3815 21.3147 24.6843 21.2505C18.6667 21.2553 14 16.4451 14.0047 10.3407C13.9419 9.63247 14.5157 9.00072 15.2054 9.00006H17.0155C17.3083 8.99712 17.5922 9.10281 17.8142 9.29742C18.4454 9.85072 18.8514 11.7287 18.6952 12.4753C18.5733 13.0581 17.9979 13.4659 17.6068 13.8646C18.4657 15.4042 19.7164 16.679 21.227 17.5545C21.6181 17.1558 22.0182 16.5694 22.5901 16.4451C23.3237 16.2856 25.1744 16.7009 25.714 17.35C25.9053 17.5802 26.007 17.874 25.9996 18.1756Z" fill="#FFFEFC" stroke="white" stroke-linecap="round" stroke-linejoin="round"/>
</svg>
