<svg width="39" height="32" viewBox="0 0 39 32" fill="none" xmlns="http://www.w3.org/2000/svg">
<rect width="39" height="32" rx="10" fill="#378A8A"/>
<path d="M23.995 15.4718H16.005C14.9074 15.4718 14.0151 14.5601 14.0151 13.4401C14.0151 12.3201 14.9074 11.4095 16.005 11.4095H20.999C21.2797 11.4095 21.507 11.1774 21.507 10.891C21.507 10.6046 21.2797 10.3726 20.999 10.3726H16.005C14.3481 10.3726 13 11.7482 13 13.4391C13 15.1309 14.3481 16.5066 16.005 16.5066H23.995C25.0926 16.5066 25.9849 17.4182 25.9849 18.5383C25.9849 19.6583 25.0926 20.5689 23.995 20.5689H18.9577C18.6771 20.5689 18.4497 20.801 18.4497 21.0874C18.4497 21.3738 18.6771 21.6058 18.9577 21.6058H23.995C25.6519 21.6058 27 20.2301 27 18.5393C27 16.8485 25.6519 15.4718 23.995 15.4718Z" fill="white"/>
<path d="M17.0983 20.1686C17.5863 20.1686 17.9827 20.5731 17.9827 21.071C17.9827 21.569 17.5863 21.9734 17.0983 21.9734C16.6104 21.9734 16.214 21.569 16.214 21.071C16.214 20.5731 16.6114 20.1686 17.0983 20.1686ZM17.0983 19.142C16.0541 19.142 15.208 20.0054 15.208 21.071C15.208 22.1367 16.0541 23 17.0983 23C18.1426 23 18.9887 22.1367 18.9887 21.071C18.9887 20.0054 18.1426 19.142 17.0983 19.142Z" fill="white"/>
<path d="M22.8542 12.858C23.8982 12.858 24.7445 11.9944 24.7445 10.929C24.7445 9.86365 23.8982 9 22.8542 9C21.8102 9 20.9639 9.86365 20.9639 10.929C20.9639 11.9944 21.8102 12.858 22.8542 12.858Z" fill="white"/>
</svg>
