<svg width="24" height="24" viewBox="0 0 24 24" fill="none" xmlns="http://www.w3.org/2000/svg">
<path d="M18.8485 11.0945H5.15148C3.2699 11.0945 1.74016 9.53168 1.74016 7.61162C1.74016 5.69155 3.2699 4.1305 5.15148 4.1305H13.7126C14.1937 4.1305 14.5835 3.73275 14.5835 3.24173C14.5835 2.75072 14.1937 2.35297 13.7126 2.35297H5.15148C2.31101 2.35297 0 4.71127 0 7.60985C0 10.5102 2.31101 12.8685 5.15148 12.8685H18.8485C20.7301 12.8685 22.2598 14.4313 22.2598 16.3513C22.2598 18.2714 20.7301 19.8325 18.8485 19.8325H10.2133C9.73211 19.8325 9.34233 20.2302 9.34233 20.7212C9.34233 21.2122 9.73211 21.61 10.2133 21.61H18.8485C21.689 21.61 24 19.2517 24 16.3531C24 13.4545 21.689 11.0945 18.8485 11.0945Z" fill="white"/>
<path d="M7.02598 19.1462C7.86243 19.1462 8.54194 19.8396 8.54194 20.6932C8.54194 21.5467 7.86243 22.2401 7.02598 22.2401C6.18953 22.2401 5.51003 21.5467 5.51003 20.6932C5.51003 19.8396 6.19126 19.1462 7.02598 19.1462ZM7.02598 17.3863C5.23581 17.3863 3.7854 18.8664 3.7854 20.6932C3.7854 22.52 5.23581 24 7.02598 24C8.81615 24 10.2666 22.52 10.2666 20.6932C10.2666 18.8664 8.81615 17.3863 7.02598 17.3863Z" fill="white"/>
<path d="M16.8924 6.61378C18.6822 6.61378 20.133 5.13323 20.133 3.30689C20.133 1.48055 18.6822 0 16.8924 0C15.1027 0 13.6519 1.48055 13.6519 3.30689C13.6519 5.13323 15.1027 6.61378 16.8924 6.61378Z" fill="white"/>
</svg>
