<svg width="18" height="16" viewBox="0 0 18 16" fill="none" xmlns="http://www.w3.org/2000/svg">
<path d="M10.2857 0C8.23976 0 6.2776 0.812753 4.83089 2.25946C3.38418 3.70617 2.57143 5.66833 2.57143 7.71429H0L3.33429 11.0486L3.39429 11.1686L6.85714 7.71429H4.28571C4.28571 4.39714 6.96857 1.71429 10.2857 1.71429C13.6029 1.71429 16.2857 4.39714 16.2857 7.71429C16.2857 11.0314 13.6029 13.7143 10.2857 13.7143C8.63143 13.7143 7.13143 13.0371 6.05143 11.9486L4.83429 13.1657C5.54864 13.884 6.39813 14.4538 7.33377 14.8422C8.26941 15.2305 9.27267 15.4298 10.2857 15.4286C12.3317 15.4286 14.2938 14.6158 15.7405 13.1691C17.1872 11.7224 18 9.76024 18 7.71429C18 5.66833 17.1872 3.70617 15.7405 2.25946C14.2938 0.812753 12.3317 3.04871e-08 10.2857 0ZM9.42857 4.28571V8.57143L13.0971 10.7486L13.7143 9.71143L10.7143 7.92857V4.28571H9.42857Z" fill="white"/>
</svg>
