<svg width="34" height="34" viewBox="0 0 34 34" fill="none" xmlns="http://www.w3.org/2000/svg">
<circle opacity="0.2" cx="17" cy="17" r="17" fill="#143784"/>
<path d="M22.4444 15.2H11.5556C10.6964 15.2 10 15.9164 10 16.8V22.4C10 23.2837 10.6964 24 11.5556 24H22.4444C23.3036 24 24 23.2837 24 22.4V16.8C24 15.9164 23.3036 15.2 22.4444 15.2Z" stroke="#143784" stroke-width="2" stroke-linecap="round" stroke-linejoin="round"/>
<path d="M13.1111 15.2V12C13.1111 10.9391 13.5208 9.92172 14.2501 9.17157C14.9794 8.42143 15.9686 8 17 8C18.0314 8 19.0205 8.42143 19.7498 9.17157C20.4791 9.92172 20.8889 10.9391 20.8889 12V15.2" stroke="#143784" stroke-width="2" stroke-linecap="round" stroke-linejoin="round"/>
</svg>
