<svg width="163" height="32" viewBox="0 0 163 32" fill="none" xmlns="http://www.w3.org/2000/svg">
<path d="M4.46675 0.943278C5.9187 0.595505 8.08995 0.386841 10.2295 0.386841C12.4529 0.386841 14.8088 0.822275 16.36 2.06232C17.7611 3.11963 18.5671 4.65848 18.5671 6.75047C18.5671 9.56475 17.2223 11.8033 15.4969 13.1618C13.5916 14.6813 10.8383 15.3872 8.02449 15.3872C7.15841 15.3872 6.40866 15.3086 5.77985 15.2217L4.05227 24.1613H0L4.46675 0.943278ZM6.40991 11.8531C7.08834 11.9922 7.70132 12.0559 8.57115 12.0559C12.0776 12.0559 14.4077 9.87095 14.4077 7.07683C14.4077 4.56258 12.5788 3.65591 10.2624 3.65591C9.20914 3.65591 8.42728 3.73862 7.95901 3.85798L6.40991 11.8531Z" fill="#143784"/>
<path d="M36.3292 13.7768C36.3292 19.5712 32.2382 24.547 26.3334 24.547C21.9672 24.547 19.2631 21.5796 19.2631 17.5158C19.2631 11.7358 23.3482 6.71759 29.2522 6.71759C33.904 6.71759 36.3292 10.0076 36.3292 13.7768ZM23.54 17.408C23.54 19.7506 24.7951 21.3932 26.9096 21.3932C29.994 21.3932 32.0514 17.173 32.0514 13.7965C32.0514 12.0288 31.2491 9.87143 28.7476 9.87143C25.4568 9.87102 23.535 14.2011 23.54 17.408Z" fill="#143784"/>
<path d="M38.1066 24.1614L40.1282 13.636C40.5857 11.2226 40.8242 8.62274 41.0093 7.10283H44.6104C44.4974 8.26921 44.3844 9.43929 44.2206 10.6929H44.3282C45.5095 8.39514 47.3955 6.71759 49.7407 6.71759C50.0409 6.71759 50.377 6.73407 50.6443 6.76658L49.8387 10.7625C49.6231 10.7349 49.3496 10.7184 49.0347 10.7184C46.0991 10.7184 44.2331 13.6665 43.5467 17.2919L42.2399 24.1614H38.1066Z" fill="#143784"/>
<path d="M50.4252 24.1614L53.7165 7.1028H57.8496L54.5584 24.1614H50.4252ZM54.3649 2.45581C54.3724 1.01574 55.5087 0 56.8489 0C58.154 0 59.0497 0.879922 59.0497 2.18664C59.0268 3.68886 57.8959 4.62886 56.4911 4.62886C55.2314 4.62886 54.3532 3.7436 54.3649 2.45581Z" fill="#143784"/>
<path d="M77.1658 7.10278L74.9083 18.8695C74.508 20.9116 74.2507 22.6838 74.0506 24.161H70.3699L70.7468 21.1882L70.6759 21.1783C69.0072 23.402 66.8322 24.5466 64.6605 24.5466C62.139 24.5466 60.1667 23.2176 60.1667 19.7004C60.1667 18.8151 60.2793 17.8344 60.5065 16.6783L62.355 7.10236H66.4881L64.7001 16.4029C64.5362 17.2623 64.4249 18.0941 64.4249 18.7678C64.4249 20.1601 65.0033 21.1841 66.6232 21.1841C68.5384 21.1841 70.7581 18.9382 71.4427 15.3851L73.0323 7.10236H77.1658V7.10278Z" fill="#143784"/>
<path d="M78.6127 24.1614L80.8282 12.3947C81.2247 10.3525 81.4783 8.58029 81.6822 7.10318H85.2644L84.8896 10.071H84.9567C86.5567 7.78761 88.6945 6.71796 90.9454 6.71796C93.6429 6.71796 94.8755 8.4095 95.011 10.2031C96.5626 7.88064 98.7459 6.74059 101.143 6.71796C103.513 6.71796 105.35 8.21894 105.35 11.2522C105.35 12.0008 105.226 13.2573 105.06 14.1702L103.161 24.1618H99.1441L100.94 14.6167C101.064 13.9475 101.182 13.1586 101.182 12.4762C101.182 11.0106 100.584 10.0339 99.0732 10.0339C97.1705 10.0339 95.0923 12.3737 94.4176 15.9831L92.8698 24.1618H88.873L90.7186 14.5031C90.8541 13.7809 90.9491 13.1215 90.9491 12.4955C90.9491 11.209 90.5572 10.0339 88.8843 10.0339C86.9766 10.0339 84.7662 12.6128 84.1286 16.0852L82.6291 24.1622H78.6127V24.1614Z" fill="#143784"/>
<path d="M112.389 0.943278C113.841 0.595505 116.012 0.386841 118.152 0.386841C120.375 0.386841 122.731 0.822275 124.282 2.06232C125.683 3.11963 126.489 4.65848 126.489 6.75047C126.489 9.56475 125.145 11.8033 123.419 13.1618C121.514 14.6813 118.761 15.3872 115.947 15.3872C115.081 15.3872 114.331 15.3086 113.702 15.2217L111.975 24.1613H107.922L112.389 0.943278ZM114.332 11.8531C115.01 11.9922 115.623 12.0559 116.493 12.0559C120 12.0559 122.33 9.87095 122.33 7.07683C122.33 4.56258 120.501 3.65591 118.184 3.65591C117.131 3.65591 116.349 3.73862 115.881 3.85798L114.332 11.8531Z" fill="#143784"/>
<path d="M138.134 24.1614C138.15 23.1527 138.281 21.7854 138.431 20.3235H138.35C136.638 23.4741 134.347 24.5466 132.145 24.5466C129.064 24.5466 127.032 22.1591 127.032 18.7431C127.032 12.9096 131.154 6.71716 139.214 6.71716C141.093 6.71716 143.124 7.06329 144.456 7.47938L142.661 16.3853C142.171 18.9255 141.882 22.1402 141.951 24.161H138.134V24.1614ZM139.808 10.0558C139.408 9.94796 138.851 9.86769 138.12 9.86769C134.301 9.86769 131.346 14.1192 131.335 17.9933C131.327 19.7725 132.013 21.2389 133.809 21.2389C135.757 21.2389 138.097 18.8719 138.918 14.5353L139.808 10.0558Z" fill="#143784"/>
<path d="M151.161 7.10266L152.508 15.3151C152.824 17.1692 153.027 18.4047 153.177 19.5707H153.26C153.671 18.508 154.111 17.3688 154.917 15.5003L158.628 7.10306H163L156.696 19.6728C154.597 23.8321 152.673 26.876 150.351 29.0742C148.375 30.9789 146.102 31.807 145.043 32L144.091 28.4947C144.869 28.2469 146.056 27.8037 147.13 27.0192C148.299 26.1817 149.399 25.0038 150.174 23.6209C150.325 23.3517 150.324 23.1542 150.258 22.8204L146.826 7.10306H151.161V7.10266Z" fill="#143784"/>
</svg>
