<svg width="30" height="13" viewBox="0 0 30 13" fill="none" xmlns="http://www.w3.org/2000/svg">
<path d="M4.44993 10.5921L2.32861 8.47079C2.13088 8.27466 1.97629 8.0394 1.87474 7.78006C1.7732 7.52073 1.72694 7.24305 1.73892 6.96481C1.7509 6.68656 1.82086 6.41388 1.94432 6.16424C2.06779 5.9146 2.24203 5.69349 2.45588 5.51509C4.8682 3.57563 7.70181 2.22906 10.729 1.58357C13.5232 0.960728 16.4202 0.960728 19.2143 1.58357C22.254 2.23324 25.098 3.58981 27.5157 5.54337C27.729 5.72124 27.9028 5.94155 28.0262 6.19029C28.1496 6.43902 28.2198 6.71072 28.2325 6.98809C28.2451 7.26546 28.1999 7.54243 28.0996 7.80135C27.9993 8.06028 27.8462 8.29549 27.6501 8.49201L25.5288 10.6133C25.189 10.9599 24.7348 11.171 24.2508 11.2075C23.7669 11.2439 23.2862 11.1031 22.8983 10.8113C22.1299 10.222 21.2973 9.72147 20.4164 9.31932C20.0682 9.16137 19.7725 8.9069 19.5645 8.58607C19.3564 8.26524 19.2447 7.8915 19.2426 7.50913V5.71308C16.4657 4.94941 13.5342 4.94941 10.7573 5.71308V7.50913C10.7552 7.8915 10.6435 8.26524 10.4354 8.58607C10.2274 8.9069 9.93175 9.16137 9.58352 9.31932C8.70259 9.72147 7.86998 10.222 7.10158 10.8113C6.70963 11.1063 6.22292 11.247 5.73401 11.2066C5.2451 11.1662 4.7881 10.9475 4.44993 10.5921Z" stroke="#00133C" stroke-width="2" stroke-linecap="round" stroke-linejoin="round"/>
</svg>
