<svg width="164" height="164" viewBox="0 0 164 164" fill="none" xmlns="http://www.w3.org/2000/svg">
<circle opacity="0.1" cx="82" cy="86" r="65" fill="#60D36C"/>
<circle opacity="0.2" cx="82" cy="82" r="82" fill="#60D36C"/>
<path d="M98 71.8V75.02C97.9957 82.5675 95.5517 89.9114 91.0327 95.9564C86.5136 102.001 80.1615 106.424 72.9237 108.564C65.686 110.704 57.9504 110.447 50.8706 107.831C43.7909 105.215 37.7463 100.381 33.6384 94.0497C29.5304 87.7181 27.5793 80.2282 28.0759 72.6971C28.5725 65.166 31.4902 57.9972 36.394 52.2598C41.2977 46.5224 47.9247 42.5239 55.2867 40.8605C62.6486 39.1972 70.3509 39.9582 77.245 43.03" stroke="#60D36C" stroke-width="6" stroke-linecap="round" stroke-linejoin="round"/>
<path d="M98 47L63.3846 82L53 71.5105" stroke="#60D36C" stroke-width="6" stroke-linecap="round" stroke-linejoin="round"/>
</svg>
